<?xml version="1.0" encoding="UTF-8"?>
<svg id="Layer_1" data-name="Layer 1" xmlns="http://www.w3.org/2000/svg" viewBox="0 0 100 100">
  <path d="m77.42,36.41c-.02,2.49-1.93,4.52-4.28,4.52h-11.02c-1.85.32-3.29,1.92-3.52,3.91v10.4c.22,1.97,1.63,3.53,3.43,3.9h11.2c2.31.05,4.19,2.05,4.2,4.52v.08c-.02,2.48-1.92,4.49-4.25,4.52h-7.01c-2.53,0-5.07.01-7.6,0-1.82,0-2.82-.94-4.33-3.12-1.2-1.74-9.78-14.49-9.78-14.49l-.26-.38c-.82-1.19-1.74-2.29-2.76-3.28-3.82-3.75-8.94-6.04-14.55-6.04H5.46v45.53h17.15v-22.81c.02-2.47,1.88-4.47,4.2-4.52h.17c1.41.03,2.65.78,3.41,1.92l4.86,7.18,6.19,9.17,1.18,1.75c2.15,4.33,6.45,7.29,11.39,7.29h19.12c1.46,0,2.91-.16,4.28-.46,8.4-1.81,15.02-8.84,16.72-17.76.28-1.48.43-3,.43-4.55s-.15-3.08-.43-4.55c-.65-3.36-1.98-6.46-3.85-9.11,1.87-2.65,3.22-5.74,3.85-9.1.28-1.47.43-3,.43-4.55s-.15-3.09-.43-4.55c-1.7-8.92-8.32-15.95-16.72-17.76-1.39-.3-2.82-.46-4.28-.46H5.46v18.21h67.87c2.26.11,4.07,2.08,4.09,4.5v.08" fill="#bc9a4f" fill-rule="evenodd"/>
</svg>