<svg width="237" height="60" viewBox="0 0 237 60" fill="none" xmlns="http://www.w3.org/2000/svg">
<path fill-rule="evenodd" clip-rule="evenodd" d="M47.5705 23.9526C47.5602 25.15 46.6447 26.1223 45.512 26.1223H40.2158C39.3261 26.2761 38.6331 27.045 38.5245 28.0008V32.9992C38.6279 33.944 39.3055 34.6965 40.1744 34.8723H47.4102H45.5534C46.6654 34.8942 47.5654 35.8555 47.5705 37.0419V37.0804C47.5602 38.2723 46.6499 39.239 45.5275 39.25H42.1605C40.945 39.25 39.7244 39.2555 38.509 39.25C37.6349 39.25 37.1539 38.7996 36.4298 37.7505C35.8556 36.9156 35.2195 35.9488 34.6505 35.1084L34.4954 34.8777L31.7335 30.7911L31.6093 30.6099C31.2162 30.0386 30.7714 29.5113 30.2853 29.0334C28.4492 27.2318 25.9924 26.1332 23.2977 26.1332H13V48.0055H21.2392V37.0474C21.2495 35.861 22.1443 34.8997 23.2563 34.8777C23.2719 34.8777 23.2822 34.8777 23.2977 34.8777C23.3132 34.8777 23.3236 34.8777 23.3391 34.8777C24.0166 34.8942 24.6114 35.2513 24.9787 35.8005L27.3113 39.25L30.2853 43.6552L30.8542 44.4956C31.8886 46.5774 33.9523 48 36.3263 48H45.512C46.2154 48 46.9085 47.9231 47.5705 47.7803C51.6048 46.9124 54.7857 43.5344 55.6028 39.25C55.7373 38.5414 55.8097 37.8109 55.8097 37.0639C55.8097 36.3169 55.7373 35.5863 55.6028 34.8777C55.2925 33.2629 54.6512 31.7743 53.7512 30.5C54.6512 29.2257 55.2977 27.7426 55.6028 26.1277C55.7373 25.4192 55.8097 24.6886 55.8097 23.9416C55.8097 23.1946 55.7373 22.4586 55.6028 21.7555C54.7857 17.4711 51.6048 14.0931 47.5705 13.2252C46.9033 13.0824 46.2154 13.0055 45.512 13.0055H13V21.7555H45.4189C45.45 21.7555 45.481 21.7555 45.512 21.7555C45.5431 21.7555 45.5741 21.7555 45.6051 21.7555C46.6913 21.8104 47.5602 22.7552 47.5705 23.9196V23.9581" fill="white"/>
<path d="M75.8016 26L73.0296 21.104H71.8416V26H69.3216V13.436H74.0376C75.0096 13.436 75.8376 13.61 76.5216 13.958C77.2056 14.294 77.7156 14.756 78.0516 15.344C78.3996 15.92 78.5736 16.568 78.5736 17.288C78.5736 18.116 78.3336 18.866 77.8536 19.538C77.3736 20.198 76.6596 20.654 75.7116 20.906L78.7176 26H75.8016ZM71.8416 19.214H73.9476C74.6316 19.214 75.1416 19.052 75.4776 18.728C75.8136 18.392 75.9816 17.93 75.9816 17.342C75.9816 16.766 75.8136 16.322 75.4776 16.01C75.1416 15.686 74.6316 15.524 73.9476 15.524H71.8416V19.214ZM90.1228 20.798C90.1228 21.158 90.0988 21.482 90.0508 21.77H82.7608C82.8208 22.49 83.0728 23.054 83.5168 23.462C83.9608 23.87 84.5068 24.074 85.1548 24.074C86.0908 24.074 86.7568 23.672 87.1528 22.868H89.8708C89.5828 23.828 89.0308 24.62 88.2148 25.244C87.3988 25.856 86.3968 26.162 85.2088 26.162C84.2488 26.162 83.3848 25.952 82.6168 25.532C81.8608 25.1 81.2668 24.494 80.8348 23.714C80.4148 22.934 80.2048 22.034 80.2048 21.014C80.2048 19.982 80.4148 19.076 80.8348 18.296C81.2548 17.516 81.8428 16.916 82.5988 16.496C83.3548 16.076 84.2248 15.866 85.2088 15.866C86.1568 15.866 87.0028 16.07 87.7468 16.478C88.5028 16.886 89.0848 17.468 89.4928 18.224C89.9128 18.968 90.1228 19.826 90.1228 20.798ZM87.5128 20.078C87.5008 19.43 87.2668 18.914 86.8108 18.53C86.3548 18.134 85.7968 17.936 85.1368 17.936C84.5128 17.936 83.9848 18.128 83.5528 18.512C83.1328 18.884 82.8748 19.406 82.7788 20.078H87.5128ZM94.2662 23.93H98.7122V26H91.4042V23.966L95.7602 18.098H91.4222V16.028H98.6582V18.062L94.2662 23.93ZM100.015 20.978C100.015 19.97 100.213 19.076 100.609 18.296C101.017 17.516 101.563 16.916 102.247 16.496C102.943 16.076 103.717 15.866 104.569 15.866C105.313 15.866 105.961 16.016 106.513 16.316C107.077 16.616 107.527 16.994 107.863 17.45V16.028H110.401V26H107.863V24.542C107.539 25.01 107.089 25.4 106.513 25.712C105.949 26.012 105.295 26.162 104.551 26.162C103.711 26.162 102.943 25.946 102.247 25.514C101.563 25.082 101.017 24.476 100.609 23.696C100.213 22.904 100.015 21.998 100.015 20.978ZM107.863 21.014C107.863 20.402 107.743 19.88 107.503 19.448C107.263 19.004 106.939 18.668 106.531 18.44C106.123 18.2 105.685 18.08 105.217 18.08C104.749 18.08 104.317 18.194 103.921 18.422C103.525 18.65 103.201 18.986 102.949 19.43C102.709 19.862 102.589 20.378 102.589 20.978C102.589 21.578 102.709 22.106 102.949 22.562C103.201 23.006 103.525 23.348 103.921 23.588C104.329 23.828 104.761 23.948 105.217 23.948C105.685 23.948 106.123 23.834 106.531 23.606C106.939 23.366 107.263 23.03 107.503 22.598C107.743 22.154 107.863 21.626 107.863 21.014ZM124.28 19.556C124.988 19.688 125.57 20.042 126.026 20.618C126.482 21.194 126.71 21.854 126.71 22.598C126.71 23.27 126.542 23.864 126.206 24.38C125.882 24.884 125.408 25.28 124.784 25.568C124.16 25.856 123.422 26 122.57 26H117.152V13.436H122.336C123.188 13.436 123.92 13.574 124.532 13.85C125.156 14.126 125.624 14.51 125.936 15.002C126.26 15.494 126.422 16.052 126.422 16.676C126.422 17.408 126.224 18.02 125.828 18.512C125.444 19.004 124.928 19.352 124.28 19.556ZM119.672 18.62H121.976C122.576 18.62 123.038 18.488 123.362 18.224C123.686 17.948 123.848 17.558 123.848 17.054C123.848 16.55 123.686 16.16 123.362 15.884C123.038 15.608 122.576 15.47 121.976 15.47H119.672V18.62ZM122.21 23.948C122.822 23.948 123.296 23.804 123.632 23.516C123.98 23.228 124.154 22.82 124.154 22.292C124.154 21.752 123.974 21.332 123.614 21.032C123.254 20.72 122.768 20.564 122.156 20.564H119.672V23.948H122.21ZM128.07 20.978C128.07 19.97 128.268 19.076 128.664 18.296C129.072 17.516 129.618 16.916 130.302 16.496C130.998 16.076 131.772 15.866 132.624 15.866C133.368 15.866 134.016 16.016 134.568 16.316C135.132 16.616 135.582 16.994 135.918 17.45V16.028H138.456V26H135.918V24.542C135.594 25.01 135.144 25.4 134.568 25.712C134.004 26.012 133.35 26.162 132.606 26.162C131.766 26.162 130.998 25.946 130.302 25.514C129.618 25.082 129.072 24.476 128.664 23.696C128.268 22.904 128.07 21.998 128.07 20.978ZM135.918 21.014C135.918 20.402 135.798 19.88 135.558 19.448C135.318 19.004 134.994 18.668 134.586 18.44C134.178 18.2 133.74 18.08 133.272 18.08C132.804 18.08 132.372 18.194 131.976 18.422C131.58 18.65 131.256 18.986 131.004 19.43C130.764 19.862 130.644 20.378 130.644 20.978C130.644 21.578 130.764 22.106 131.004 22.562C131.256 23.006 131.58 23.348 131.976 23.588C132.384 23.828 132.816 23.948 133.272 23.948C133.74 23.948 134.178 23.834 134.586 23.606C134.994 23.366 135.318 23.03 135.558 22.598C135.798 22.154 135.918 21.626 135.918 21.014ZM143.437 17.576C143.761 17.048 144.181 16.634 144.697 16.334C145.225 16.034 145.825 15.884 146.497 15.884V18.53H145.831C145.039 18.53 144.439 18.716 144.031 19.088C143.635 19.46 143.437 20.108 143.437 21.032V26H140.917V16.028H143.437V17.576ZM154.099 26L150.715 21.752V26H148.195V12.68H150.715V20.258L154.063 16.028H157.339L152.947 21.032L157.375 26H154.099ZM164.322 15.884C165.078 15.884 165.75 16.052 166.338 16.388C166.926 16.712 167.382 17.198 167.706 17.846C168.042 18.482 168.21 19.25 168.21 20.15V26H165.69V20.492C165.69 19.7 165.492 19.094 165.096 18.674C164.7 18.242 164.16 18.026 163.476 18.026C162.78 18.026 162.228 18.242 161.82 18.674C161.424 19.094 161.226 19.7 161.226 20.492V26H158.706V12.68H161.226V17.27C161.55 16.838 161.982 16.502 162.522 16.262C163.062 16.01 163.662 15.884 164.322 15.884ZM175.035 26.162C174.075 26.162 173.211 25.952 172.443 25.532C171.675 25.1 171.069 24.494 170.625 23.714C170.193 22.934 169.977 22.034 169.977 21.014C169.977 19.994 170.199 19.094 170.643 18.314C171.099 17.534 171.717 16.934 172.497 16.514C173.277 16.082 174.147 15.866 175.107 15.866C176.067 15.866 176.937 16.082 177.717 16.514C178.497 16.934 179.109 17.534 179.553 18.314C180.009 19.094 180.237 19.994 180.237 21.014C180.237 22.034 180.003 22.934 179.535 23.714C179.079 24.494 178.455 25.1 177.663 25.532C176.883 25.952 176.007 26.162 175.035 26.162ZM175.035 23.966C175.491 23.966 175.917 23.858 176.313 23.642C176.721 23.414 177.045 23.078 177.285 22.634C177.525 22.19 177.645 21.65 177.645 21.014C177.645 20.066 177.393 19.34 176.889 18.836C176.397 18.32 175.791 18.062 175.071 18.062C174.351 18.062 173.745 18.32 173.253 18.836C172.773 19.34 172.533 20.066 172.533 21.014C172.533 21.962 172.767 22.694 173.235 23.21C173.715 23.714 174.315 23.966 175.035 23.966ZM184.605 17.576C184.929 17.048 185.349 16.634 185.865 16.334C186.393 16.034 186.993 15.884 187.665 15.884V18.53H186.999C186.207 18.53 185.607 18.716 185.199 19.088C184.803 19.46 184.605 20.108 184.605 21.032V26H182.085V16.028H184.605V17.576ZM188.715 20.978C188.715 19.97 188.913 19.076 189.309 18.296C189.717 17.516 190.269 16.916 190.965 16.496C191.661 16.076 192.435 15.866 193.287 15.866C193.935 15.866 194.553 16.01 195.141 16.298C195.729 16.574 196.197 16.946 196.545 17.414V12.68H199.101V26H196.545V24.524C196.233 25.016 195.795 25.412 195.231 25.712C194.667 26.012 194.013 26.162 193.269 26.162C192.429 26.162 191.661 25.946 190.965 25.514C190.269 25.082 189.717 24.476 189.309 23.696C188.913 22.904 188.715 21.998 188.715 20.978ZM196.563 21.014C196.563 20.402 196.443 19.88 196.203 19.448C195.963 19.004 195.639 18.668 195.231 18.44C194.823 18.2 194.385 18.08 193.917 18.08C193.449 18.08 193.017 18.194 192.621 18.422C192.225 18.65 191.901 18.986 191.649 19.43C191.409 19.862 191.289 20.378 191.289 20.978C191.289 21.578 191.409 22.106 191.649 22.562C191.901 23.006 192.225 23.348 192.621 23.588C193.029 23.828 193.461 23.948 193.917 23.948C194.385 23.948 194.823 23.834 195.231 23.606C195.639 23.366 195.963 23.03 196.203 22.598C196.443 22.154 196.563 21.626 196.563 21.014ZM200.914 20.978C200.914 19.97 201.112 19.076 201.508 18.296C201.916 17.516 202.462 16.916 203.146 16.496C203.842 16.076 204.616 15.866 205.468 15.866C206.212 15.866 206.86 16.016 207.412 16.316C207.976 16.616 208.426 16.994 208.762 17.45V16.028H211.3V26H208.762V24.542C208.438 25.01 207.988 25.4 207.412 25.712C206.848 26.012 206.194 26.162 205.45 26.162C204.61 26.162 203.842 25.946 203.146 25.514C202.462 25.082 201.916 24.476 201.508 23.696C201.112 22.904 200.914 21.998 200.914 20.978ZM208.762 21.014C208.762 20.402 208.642 19.88 208.402 19.448C208.162 19.004 207.838 18.668 207.43 18.44C207.022 18.2 206.584 18.08 206.116 18.08C205.648 18.08 205.216 18.194 204.82 18.422C204.424 18.65 204.1 18.986 203.848 19.43C203.608 19.862 203.488 20.378 203.488 20.978C203.488 21.578 203.608 22.106 203.848 22.562C204.1 23.006 204.424 23.348 204.82 23.588C205.228 23.828 205.66 23.948 206.116 23.948C206.584 23.948 207.022 23.834 207.43 23.606C207.838 23.366 208.162 23.03 208.402 22.598C208.642 22.154 208.762 21.626 208.762 21.014ZM216.281 17.576C216.605 17.048 217.025 16.634 217.541 16.334C218.069 16.034 218.669 15.884 219.341 15.884V18.53H218.675C217.883 18.53 217.283 18.716 216.875 19.088C216.479 19.46 216.281 20.108 216.281 21.032V26H213.761V16.028H216.281V17.576ZM222.316 14.84C221.872 14.84 221.5 14.702 221.2 14.426C220.912 14.138 220.768 13.784 220.768 13.364C220.768 12.944 220.912 12.596 221.2 12.32C221.5 12.032 221.872 11.888 222.316 11.888C222.76 11.888 223.126 12.032 223.414 12.32C223.714 12.596 223.864 12.944 223.864 13.364C223.864 13.784 223.714 14.138 223.414 14.426C223.126 14.702 222.76 14.84 222.316 14.84ZM223.558 16.028V26H221.038V16.028H223.558ZM73.1016 35.364C75.2376 35.364 76.8816 35.922 78.0336 37.038C79.1976 38.154 79.7796 39.708 79.7796 41.7C79.7796 43.692 79.1976 45.24 78.0336 46.344C76.8816 47.448 75.2376 48 73.1016 48H69.5556V35.364H73.1016ZM73.1016 47.316C75.0096 47.316 76.4616 46.824 77.4576 45.84C78.4536 44.844 78.9516 43.464 78.9516 41.7C78.9516 39.924 78.4536 38.538 77.4576 37.542C76.4616 36.546 75.0096 36.048 73.1016 36.048H70.3656V47.316H73.1016ZM91.0314 42.456C91.0314 42.888 91.0194 43.212 90.9954 43.428H82.5534C82.5774 44.304 82.7694 45.042 83.1294 45.642C83.4894 46.242 83.9634 46.692 84.5514 46.992C85.1394 47.292 85.7814 47.442 86.4774 47.442C87.4374 47.442 88.2414 47.208 88.8894 46.74C89.5374 46.26 89.9454 45.612 90.1134 44.796H90.9594C90.7674 45.792 90.2754 46.602 89.4834 47.226C88.6914 47.838 87.6894 48.144 86.4774 48.144C85.5654 48.144 84.7494 47.94 84.0294 47.532C83.3094 47.124 82.7454 46.542 82.3374 45.786C81.9294 45.018 81.7254 44.124 81.7254 43.104C81.7254 42.084 81.9234 41.196 82.3194 40.44C82.7274 39.684 83.2914 39.108 84.0114 38.712C84.7314 38.304 85.5534 38.1 86.4774 38.1C87.4134 38.1 88.2234 38.304 88.9074 38.712C89.6034 39.108 90.1314 39.642 90.4914 40.314C90.8514 40.974 91.0314 41.688 91.0314 42.456ZM90.2214 42.762C90.2574 41.898 90.1014 41.166 89.7534 40.566C89.4174 39.966 88.9554 39.522 88.3674 39.234C87.7794 38.934 87.1434 38.784 86.4594 38.784C85.7754 38.784 85.1394 38.934 84.5514 39.234C83.9754 39.522 83.5014 39.966 83.1294 40.566C82.7694 41.166 82.5774 41.898 82.5534 42.762H90.2214ZM96.7374 48.144C95.6454 48.144 94.7514 47.904 94.0554 47.424C93.3714 46.944 92.9874 46.26 92.9034 45.372H93.7314C93.7914 46.008 94.0794 46.512 94.5954 46.884C95.1234 47.256 95.8374 47.442 96.7374 47.442C97.4814 47.442 98.0694 47.256 98.5014 46.884C98.9454 46.5 99.1674 46.032 99.1674 45.48C99.1674 45.096 99.0474 44.784 98.8074 44.544C98.5794 44.292 98.2914 44.1 97.9434 43.968C97.5954 43.836 97.1214 43.692 96.5214 43.536C95.8014 43.344 95.2194 43.158 94.7754 42.978C94.3314 42.786 93.9534 42.504 93.6414 42.132C93.3294 41.76 93.1734 41.262 93.1734 40.638C93.1734 40.182 93.3114 39.762 93.5874 39.378C93.8634 38.982 94.2474 38.67 94.7394 38.442C95.2314 38.214 95.7894 38.1 96.4134 38.1C97.4334 38.1 98.2554 38.358 98.8794 38.874C99.5154 39.378 99.8574 40.08 99.9054 40.98H99.0954C99.0594 40.332 98.8074 39.804 98.3394 39.396C97.8714 38.988 97.2234 38.784 96.3954 38.784C95.6994 38.784 95.1234 38.964 94.6674 39.324C94.2114 39.684 93.9834 40.122 93.9834 40.638C93.9834 41.094 94.1094 41.466 94.3614 41.754C94.6254 42.03 94.9434 42.246 95.3154 42.402C95.6994 42.546 96.2034 42.702 96.8274 42.87C97.5114 43.05 98.0574 43.23 98.4654 43.41C98.8854 43.578 99.2394 43.83 99.5274 44.166C99.8154 44.49 99.9594 44.928 99.9594 45.48C99.9594 45.984 99.8214 46.44 99.5454 46.848C99.2694 47.256 98.8854 47.574 98.3934 47.802C97.9014 48.03 97.3494 48.144 96.7374 48.144ZM102.841 36.048C102.649 36.048 102.487 35.988 102.355 35.868C102.223 35.736 102.157 35.562 102.157 35.346C102.157 35.142 102.223 34.974 102.355 34.842C102.487 34.71 102.649 34.644 102.841 34.644C103.033 34.644 103.195 34.71 103.327 34.842C103.459 34.974 103.525 35.142 103.525 35.346C103.525 35.562 103.459 35.736 103.327 35.868C103.195 35.988 103.033 36.048 102.841 36.048ZM103.237 38.226V48H102.427V38.226H103.237ZM110.418 38.1C111.45 38.1 112.326 38.352 113.046 38.856C113.766 39.348 114.27 39.984 114.558 40.764V38.226H115.368V48.306C115.368 49.206 115.17 49.992 114.774 50.664C114.378 51.348 113.844 51.87 113.172 52.23C112.5 52.602 111.75 52.788 110.922 52.788C109.698 52.788 108.684 52.494 107.88 51.906C107.076 51.318 106.548 50.526 106.296 49.53H107.106C107.346 50.31 107.796 50.928 108.456 51.384C109.116 51.852 109.938 52.086 110.922 52.086C111.606 52.086 112.224 51.93 112.776 51.618C113.328 51.318 113.76 50.88 114.072 50.304C114.396 49.74 114.558 49.074 114.558 48.306V45.444C114.27 46.224 113.76 46.872 113.028 47.388C112.308 47.892 111.438 48.144 110.418 48.144C109.506 48.144 108.69 47.94 107.97 47.532C107.262 47.112 106.704 46.524 106.296 45.768C105.9 45 105.702 44.112 105.702 43.104C105.702 42.096 105.9 41.214 106.296 40.458C106.704 39.702 107.262 39.12 107.97 38.712C108.69 38.304 109.506 38.1 110.418 38.1ZM114.558 43.104C114.558 42.252 114.378 41.502 114.018 40.854C113.67 40.194 113.19 39.69 112.578 39.342C111.966 38.982 111.282 38.802 110.526 38.802C109.734 38.802 109.038 38.976 108.438 39.324C107.838 39.66 107.37 40.152 107.034 40.8C106.698 41.448 106.53 42.216 106.53 43.104C106.53 43.992 106.698 44.76 107.034 45.408C107.37 46.056 107.838 46.554 108.438 46.902C109.05 47.25 109.746 47.424 110.526 47.424C111.282 47.424 111.966 47.25 112.578 46.902C113.202 46.542 113.688 46.038 114.036 45.39C114.384 44.73 114.558 43.968 114.558 43.104ZM122.727 38.028C123.891 38.028 124.839 38.388 125.571 39.108C126.303 39.816 126.669 40.872 126.669 42.276V48H125.877V42.33C125.877 41.166 125.583 40.278 124.995 39.666C124.407 39.042 123.609 38.73 122.601 38.73C121.545 38.73 120.699 39.066 120.063 39.738C119.439 40.41 119.127 41.406 119.127 42.726V48H118.317V38.226H119.127V40.296C119.403 39.564 119.859 39.006 120.495 38.622C121.143 38.226 121.887 38.028 122.727 38.028ZM138.266 48.126C137.45 48.126 136.736 47.982 136.124 47.694C135.512 47.406 135.032 47.016 134.684 46.524C134.348 46.032 134.156 45.486 134.108 44.886H134.954C135.05 45.546 135.356 46.134 135.872 46.65C136.4 47.166 137.198 47.424 138.266 47.424C138.89 47.424 139.43 47.31 139.886 47.082C140.354 46.854 140.714 46.542 140.966 46.146C141.218 45.75 141.344 45.312 141.344 44.832C141.344 44.22 141.194 43.734 140.894 43.374C140.606 43.014 140.24 42.744 139.796 42.564C139.364 42.384 138.776 42.192 138.032 41.988C137.216 41.772 136.556 41.556 136.052 41.34C135.56 41.124 135.14 40.794 134.792 40.35C134.456 39.894 134.288 39.276 134.288 38.496C134.288 37.896 134.444 37.35 134.756 36.858C135.08 36.354 135.536 35.958 136.124 35.67C136.712 35.382 137.39 35.238 138.158 35.238C139.274 35.238 140.174 35.514 140.858 36.066C141.542 36.618 141.95 37.296 142.082 38.1H141.218C141.146 37.776 140.984 37.446 140.732 37.11C140.492 36.774 140.144 36.498 139.688 36.282C139.244 36.054 138.71 35.94 138.086 35.94C137.246 35.94 136.538 36.174 135.962 36.642C135.386 37.098 135.098 37.71 135.098 38.478C135.098 39.09 135.248 39.582 135.548 39.954C135.848 40.314 136.214 40.59 136.646 40.782C137.09 40.962 137.684 41.148 138.428 41.34C139.256 41.568 139.91 41.79 140.39 42.006C140.882 42.21 141.296 42.54 141.632 42.996C141.98 43.44 142.154 44.046 142.154 44.814C142.154 45.378 142.004 45.912 141.704 46.416C141.404 46.92 140.96 47.334 140.372 47.658C139.796 47.97 139.094 48.126 138.266 48.126ZM145.785 38.928V45.39C145.785 46.11 145.917 46.608 146.181 46.884C146.445 47.148 146.913 47.28 147.585 47.28H148.683V48H147.459C146.607 48 145.977 47.802 145.569 47.406C145.173 46.998 144.975 46.326 144.975 45.39V38.928H143.499V38.226H144.975V35.742H145.785V38.226H148.683V38.928H145.785ZM159.081 38.226V48H158.271V45.876C157.995 46.62 157.533 47.19 156.885 47.586C156.249 47.97 155.517 48.162 154.689 48.162C153.525 48.162 152.571 47.808 151.827 47.1C151.095 46.38 150.729 45.318 150.729 43.914V38.226H151.521V43.86C151.521 45.024 151.815 45.918 152.403 46.542C152.991 47.154 153.789 47.46 154.797 47.46C155.853 47.46 156.693 47.124 157.317 46.452C157.953 45.78 158.271 44.784 158.271 43.464V38.226H159.081ZM161.53 43.104C161.53 42.096 161.728 41.214 162.124 40.458C162.532 39.702 163.09 39.12 163.798 38.712C164.518 38.304 165.334 38.1 166.246 38.1C167.242 38.1 168.106 38.352 168.838 38.856C169.57 39.348 170.086 39.99 170.386 40.782V34.68H171.196V48H170.386V45.408C170.098 46.212 169.594 46.872 168.874 47.388C168.154 47.892 167.278 48.144 166.246 48.144C165.334 48.144 164.518 47.94 163.798 47.532C163.09 47.112 162.532 46.524 162.124 45.768C161.728 45 161.53 44.112 161.53 43.104ZM170.386 43.104C170.386 42.252 170.206 41.502 169.846 40.854C169.498 40.194 169.018 39.69 168.406 39.342C167.794 38.982 167.11 38.802 166.354 38.802C165.562 38.802 164.866 38.976 164.266 39.324C163.666 39.66 163.198 40.152 162.862 40.8C162.526 41.448 162.358 42.216 162.358 43.104C162.358 43.992 162.526 44.76 162.862 45.408C163.198 46.056 163.666 46.554 164.266 46.902C164.878 47.25 165.574 47.424 166.354 47.424C167.11 47.424 167.794 47.25 168.406 46.902C169.03 46.542 169.516 46.038 169.864 45.39C170.212 44.73 170.386 43.968 170.386 43.104ZM174.559 36.048C174.367 36.048 174.205 35.988 174.073 35.868C173.941 35.736 173.875 35.562 173.875 35.346C173.875 35.142 173.941 34.974 174.073 34.842C174.205 34.71 174.367 34.644 174.559 34.644C174.751 34.644 174.913 34.71 175.045 34.842C175.177 34.974 175.243 35.142 175.243 35.346C175.243 35.562 175.177 35.736 175.045 35.868C174.913 35.988 174.751 36.048 174.559 36.048ZM174.955 38.226V48H174.145V38.226H174.955ZM182.227 48.144C181.315 48.144 180.493 47.94 179.761 47.532C179.029 47.124 178.453 46.542 178.033 45.786C177.625 45.018 177.421 44.124 177.421 43.104C177.421 42.096 177.631 41.214 178.051 40.458C178.471 39.69 179.047 39.108 179.779 38.712C180.523 38.304 181.351 38.1 182.263 38.1C183.175 38.1 183.997 38.304 184.729 38.712C185.461 39.108 186.031 39.684 186.439 40.44C186.859 41.196 187.069 42.084 187.069 43.104C187.069 44.124 186.859 45.018 186.439 45.786C186.019 46.542 185.437 47.124 184.693 47.532C183.961 47.94 183.139 48.144 182.227 48.144ZM182.227 47.424C182.935 47.424 183.595 47.268 184.207 46.956C184.831 46.632 185.329 46.146 185.701 45.498C186.073 44.85 186.259 44.052 186.259 43.104C186.259 42.168 186.073 41.376 185.701 40.728C185.329 40.08 184.837 39.6 184.225 39.288C183.613 38.964 182.953 38.802 182.245 38.802C181.537 38.802 180.877 38.964 180.265 39.288C179.665 39.6 179.179 40.08 178.807 40.728C178.435 41.376 178.249 42.168 178.249 43.104C178.249 44.052 178.429 44.85 178.789 45.498C179.161 46.146 179.647 46.632 180.247 46.956C180.859 47.268 181.519 47.424 182.227 47.424Z" fill="white"/>
</svg>
