<svg width="198" height="51" viewBox="0 0 198 51" fill="none" xmlns="http://www.w3.org/2000/svg">
<path fill-rule="evenodd" clip-rule="evenodd" d="M39.6421 20.7706C39.6335 21.7685 38.8706 22.5786 37.9267 22.5786H33.5132C32.7718 22.7068 32.1943 23.3476 32.1038 24.1441V28.3094C32.19 29.0967 32.7546 29.7238 33.4787 29.8703H39.5085H37.9612C38.8879 29.8886 39.6378 30.6897 39.6421 31.6784V31.7104C39.6335 32.7037 38.8749 33.5093 37.9397 33.5184H35.1338C34.1209 33.5184 33.1037 33.523 32.0908 33.5184C31.3624 33.5184 30.9616 33.1431 30.3582 32.2688C29.8797 31.5731 29.3496 30.7675 28.8755 30.0671L28.7462 29.8749L26.4446 26.4694L26.3411 26.3183C26.0136 25.8423 25.6429 25.4028 25.2378 25.0046C23.7077 23.5033 21.6604 22.5878 19.4148 22.5878H10.8334V40.8147H17.6994V31.6829C17.708 30.6942 18.4536 29.8932 19.3803 29.8749C19.3933 29.8749 19.4019 29.8749 19.4148 29.8749C19.4277 29.8749 19.4364 29.8749 19.4493 29.8749C20.0139 29.8886 20.5096 30.1861 20.8156 30.6439L22.7594 33.5184L25.2378 37.1894L25.7119 37.8898C26.5739 39.6246 28.2936 40.8101 30.272 40.8101H37.9267C38.5129 40.8101 39.0905 40.746 39.6421 40.627C43.004 39.9038 45.6548 37.0887 46.3358 33.5184C46.4478 32.928 46.5082 32.3192 46.5082 31.6967C46.5082 31.0741 46.4478 30.4654 46.3358 29.8749C46.0771 28.5292 45.5427 27.2887 44.7927 26.2268C45.5427 25.1648 46.0815 23.929 46.3358 22.5832C46.4478 21.9927 46.5082 21.384 46.5082 20.7614C46.5082 20.1389 46.4478 19.5256 46.3358 18.9397C45.6548 15.3694 43.004 12.5543 39.6421 11.8311C39.0861 11.7121 38.5129 11.648 37.9267 11.648H10.8334V18.9397H37.8491C37.875 18.9397 37.9009 18.9397 37.9267 18.9397C37.9526 18.9397 37.9784 18.9397 38.0043 18.9397C38.9094 18.9854 39.6335 19.7727 39.6421 20.7431V20.7752" fill="#C29E3D"/>
<path d="M63.2168 22.3101L60.8892 18.1991H59.8917V22.3101H57.7758V11.7606H61.7356C62.5518 11.7606 63.247 11.9067 63.8213 12.1989C64.3957 12.481 64.8239 12.869 65.106 13.3627C65.3982 13.8463 65.5443 14.3904 65.5443 14.995C65.5443 15.6902 65.3428 16.32 64.9398 16.8842C64.5367 17.4384 63.9372 17.8213 63.1412 18.0329L65.6652 22.3101H63.2168ZM59.8917 16.6122H61.66C62.2344 16.6122 62.6626 16.4761 62.9447 16.2041C63.2269 15.922 63.3679 15.534 63.3679 15.0403C63.3679 14.5567 63.2269 14.1839 62.9447 13.9219C62.6626 13.6498 62.2344 13.5138 61.66 13.5138H59.8917V16.6122ZM75.2418 17.9422C75.2418 18.2445 75.2216 18.5165 75.1813 18.7583H69.0602C69.1106 19.3629 69.3222 19.8365 69.695 20.1791C70.0678 20.5216 70.5263 20.6929 71.0704 20.6929C71.8563 20.6929 72.4155 20.3554 72.748 19.6803H75.0302C74.7884 20.4864 74.3249 21.1514 73.6397 21.6753C72.9546 22.1892 72.1132 22.4461 71.1157 22.4461C70.3096 22.4461 69.5842 22.2698 68.9393 21.9172C68.3045 21.5544 67.8057 21.0456 67.443 20.3907C67.0904 19.7357 66.914 18.98 66.914 18.1236C66.914 17.257 67.0904 16.4963 67.443 15.8414C67.7957 15.1864 68.2894 14.6826 68.9242 14.33C69.559 13.9773 70.2895 13.801 71.1157 13.801C71.9117 13.801 72.6221 13.9723 73.2468 14.3149C73.8815 14.6574 74.3702 15.1461 74.7128 15.7809C75.0655 16.4056 75.2418 17.126 75.2418 17.9422ZM73.0503 17.3376C73.0402 16.7935 72.8437 16.3603 72.4608 16.0378C72.078 15.7053 71.6094 15.5391 71.0552 15.5391C70.5313 15.5391 70.088 15.7003 69.7252 16.0227C69.3726 16.3351 69.1559 16.7734 69.0753 17.3376H73.0503ZM78.7208 20.572H82.454V22.3101H76.3177V20.6022L79.9753 15.6751H76.3328V13.937H82.4086V15.6449L78.7208 20.572ZM83.5482 18.0933C83.5482 17.247 83.7145 16.4963 84.047 15.8414C84.3895 15.1864 84.848 14.6826 85.4223 14.33C86.0067 13.9773 86.6566 13.801 87.372 13.801C87.9967 13.801 88.5408 13.9269 89.0043 14.1788C89.4779 14.4307 89.8557 14.7481 90.1379 15.131V13.937H92.2689V22.3101H90.1379V21.0859C89.8658 21.4789 89.488 21.8063 89.0043 22.0683C88.5308 22.3202 87.9816 22.4461 87.3569 22.4461C86.6516 22.4461 86.0067 22.2648 85.4223 21.902C84.848 21.5393 84.3895 21.0305 84.047 20.3755C83.7145 19.7105 83.5482 18.9498 83.5482 18.0933ZM90.1379 18.1236C90.1379 17.6097 90.0371 17.1714 89.8356 16.8087C89.6341 16.4358 89.362 16.1537 89.0194 15.9623C88.6769 15.7608 88.3091 15.66 87.9161 15.66C87.5232 15.66 87.1604 15.7557 86.8279 15.9472C86.4954 16.1386 86.2234 16.4207 86.0118 16.7935C85.8103 17.1563 85.7095 17.5895 85.7095 18.0933C85.7095 18.5971 85.8103 19.0405 86.0118 19.4234C86.2234 19.7962 86.4954 20.0833 86.8279 20.2849C87.1705 20.4864 87.5332 20.5871 87.9161 20.5871C88.3091 20.5871 88.6769 20.4914 89.0194 20.3C89.362 20.0984 89.6341 19.8163 89.8356 19.4536C90.0371 19.0808 90.1379 18.6374 90.1379 18.1236ZM103.922 16.8993C104.516 17.0102 105.005 17.3074 105.388 17.7911C105.771 18.2747 105.962 18.8289 105.962 19.4536C105.962 20.0178 105.821 20.5166 105.539 20.9499C105.267 21.3731 104.869 21.7056 104.345 21.9474C103.821 22.1892 103.202 22.3101 102.486 22.3101H97.9369V11.7606H102.29C103.005 11.7606 103.62 11.8765 104.134 12.1082C104.658 12.34 105.051 12.6624 105.312 13.0755C105.585 13.4886 105.721 13.9572 105.721 14.4811C105.721 15.0957 105.554 15.6096 105.222 16.0227C104.899 16.4358 104.466 16.728 103.922 16.8993ZM100.053 16.1134H101.987C102.491 16.1134 102.879 16.0026 103.151 15.7809C103.423 15.5492 103.559 15.2217 103.559 14.7985C103.559 14.3753 103.423 14.0478 103.151 13.8161C102.879 13.5843 102.491 13.4685 101.987 13.4685H100.053V16.1134ZM102.184 20.5871C102.698 20.5871 103.096 20.4662 103.378 20.2244C103.67 19.9826 103.816 19.64 103.816 19.1967C103.816 18.7432 103.665 18.3906 103.363 18.1387C103.061 17.8767 102.652 17.7457 102.139 17.7457H100.053V20.5871H102.184ZM107.105 18.0933C107.105 17.247 107.271 16.4963 107.603 15.8414C107.946 15.1864 108.404 14.6826 108.979 14.33C109.563 13.9773 110.213 13.801 110.928 13.801C111.553 13.801 112.097 13.9269 112.561 14.1788C113.034 14.4307 113.412 14.7481 113.694 15.131V13.937H115.825V22.3101H113.694V21.0859C113.422 21.4789 113.044 21.8063 112.561 22.0683C112.087 22.3202 111.538 22.4461 110.913 22.4461C110.208 22.4461 109.563 22.2648 108.979 21.902C108.404 21.5393 107.946 21.0305 107.603 20.3755C107.271 19.7105 107.105 18.9498 107.105 18.0933ZM113.694 18.1236C113.694 17.6097 113.594 17.1714 113.392 16.8087C113.191 16.4358 112.918 16.1537 112.576 15.9623C112.233 15.7608 111.866 15.66 111.473 15.66C111.08 15.66 110.717 15.7557 110.384 15.9472C110.052 16.1386 109.78 16.4207 109.568 16.7935C109.367 17.1563 109.266 17.5895 109.266 18.0933C109.266 18.5971 109.367 19.0405 109.568 19.4234C109.78 19.7962 110.052 20.0833 110.384 20.2849C110.727 20.4864 111.09 20.5871 111.473 20.5871C111.866 20.5871 112.233 20.4914 112.576 20.3C112.918 20.0984 113.191 19.8163 113.392 19.4536C113.594 19.0808 113.694 18.6374 113.694 18.1236ZM120.008 15.2368C120.28 14.7935 120.633 14.4458 121.066 14.1939C121.509 13.942 122.013 13.8161 122.577 13.8161V16.0378H122.018C121.353 16.0378 120.849 16.194 120.507 16.5064C120.174 16.8187 120.008 17.3628 120.008 18.1387V22.3101H117.892V13.937H120.008V15.2368ZM128.96 22.3101L126.118 18.7432V22.3101H124.003V11.1258H126.118V17.4888L128.93 13.937H131.68L127.993 18.1387L131.711 22.3101H128.96ZM137.544 13.8161C138.179 13.8161 138.743 13.9572 139.237 14.2393C139.731 14.5113 140.114 14.9194 140.386 15.4635C140.668 15.9975 140.809 16.6424 140.809 17.3981V22.3101H138.693V17.6853C138.693 17.0202 138.527 16.5114 138.194 16.1588C137.862 15.796 137.408 15.6147 136.834 15.6147C136.25 15.6147 135.786 15.796 135.444 16.1588C135.111 16.5114 134.945 17.0202 134.945 17.6853V22.3101H132.829V11.1258H134.945V14.9799C135.217 14.6171 135.58 14.335 136.033 14.1335C136.486 13.9219 136.99 13.8161 137.544 13.8161ZM146.539 22.4461C145.733 22.4461 145.008 22.2698 144.363 21.9172C143.718 21.5544 143.209 21.0456 142.836 20.3907C142.473 19.7357 142.292 18.98 142.292 18.1236C142.292 17.2671 142.479 16.5114 142.851 15.8565C143.234 15.2015 143.753 14.6977 144.408 14.3451C145.063 13.9823 145.794 13.801 146.6 13.801C147.406 13.801 148.136 13.9823 148.791 14.3451C149.446 14.6977 149.96 15.2015 150.333 15.8565C150.716 16.5114 150.907 17.2671 150.907 18.1236C150.907 18.98 150.711 19.7357 150.318 20.3907C149.935 21.0456 149.411 21.5544 148.746 21.9172C148.091 22.2698 147.355 22.4461 146.539 22.4461ZM146.539 20.6022C146.922 20.6022 147.28 20.5116 147.612 20.3302C147.955 20.1388 148.227 19.8566 148.428 19.4838C148.63 19.111 148.731 18.6576 148.731 18.1236C148.731 17.3276 148.519 16.718 148.096 16.2948C147.683 15.8615 147.174 15.6449 146.569 15.6449C145.965 15.6449 145.456 15.8615 145.043 16.2948C144.64 16.718 144.438 17.3276 144.438 18.1236C144.438 18.9196 144.635 19.5342 145.028 19.9675C145.431 20.3907 145.935 20.6022 146.539 20.6022ZM154.575 15.2368C154.847 14.7935 155.2 14.4458 155.633 14.1939C156.076 13.942 156.58 13.8161 157.145 13.8161V16.0378H156.585C155.92 16.0378 155.416 16.194 155.074 16.5064C154.741 16.8187 154.575 17.3628 154.575 18.1387V22.3101H152.459V13.937H154.575V15.2368ZM158.026 18.0933C158.026 17.247 158.192 16.4963 158.524 15.8414C158.867 15.1864 159.33 14.6826 159.915 14.33C160.499 13.9773 161.149 13.801 161.865 13.801C162.409 13.801 162.928 13.9219 163.421 14.1637C163.915 14.3955 164.308 14.7078 164.6 15.1008V11.1258H166.746V22.3101H164.6V21.0708C164.338 21.4839 163.97 21.8164 163.497 22.0683C163.023 22.3202 162.474 22.4461 161.849 22.4461C161.144 22.4461 160.499 22.2648 159.915 21.902C159.33 21.5393 158.867 21.0305 158.524 20.3755C158.192 19.7105 158.026 18.9498 158.026 18.0933ZM164.615 18.1236C164.615 17.6097 164.515 17.1714 164.313 16.8087C164.111 16.4358 163.839 16.1537 163.497 15.9623C163.154 15.7608 162.786 15.66 162.394 15.66C162.001 15.66 161.638 15.7557 161.305 15.9472C160.973 16.1386 160.701 16.4207 160.489 16.7935C160.288 17.1563 160.187 17.5895 160.187 18.0933C160.187 18.5971 160.288 19.0405 160.489 19.4234C160.701 19.7962 160.973 20.0833 161.305 20.2849C161.648 20.4864 162.011 20.5871 162.394 20.5871C162.786 20.5871 163.154 20.4914 163.497 20.3C163.839 20.0984 164.111 19.8163 164.313 19.4536C164.515 19.0808 164.615 18.6374 164.615 18.1236ZM168.269 18.0933C168.269 17.247 168.435 16.4963 168.768 15.8414C169.11 15.1864 169.569 14.6826 170.143 14.33C170.727 13.9773 171.377 13.801 172.093 13.801C172.717 13.801 173.261 13.9269 173.725 14.1788C174.199 14.4307 174.576 14.7481 174.859 15.131V13.937H176.99V22.3101H174.859V21.0859C174.586 21.4789 174.209 21.8063 173.725 22.0683C173.251 22.3202 172.702 22.4461 172.078 22.4461C171.372 22.4461 170.727 22.2648 170.143 21.902C169.569 21.5393 169.11 21.0305 168.768 20.3755C168.435 19.7105 168.269 18.9498 168.269 18.0933ZM174.859 18.1236C174.859 17.6097 174.758 17.1714 174.556 16.8087C174.355 16.4358 174.083 16.1537 173.74 15.9623C173.397 15.7608 173.03 15.66 172.637 15.66C172.244 15.66 171.881 15.7557 171.549 15.9472C171.216 16.1386 170.944 16.4207 170.732 16.7935C170.531 17.1563 170.43 17.5895 170.43 18.0933C170.43 18.5971 170.531 19.0405 170.732 19.4234C170.944 19.7962 171.216 20.0833 171.549 20.2849C171.891 20.4864 172.254 20.5871 172.637 20.5871C173.03 20.5871 173.397 20.4914 173.74 20.3C174.083 20.0984 174.355 19.8163 174.556 19.4536C174.758 19.0808 174.859 18.6374 174.859 18.1236ZM181.172 15.2368C181.444 14.7935 181.797 14.4458 182.23 14.1939C182.673 13.942 183.177 13.8161 183.741 13.8161V16.0378H183.182C182.517 16.0378 182.013 16.194 181.671 16.5064C181.338 16.8187 181.172 17.3628 181.172 18.1387V22.3101H179.056V13.937H181.172V15.2368ZM186.24 12.9395C185.867 12.9395 185.555 12.8236 185.303 12.5919C185.061 12.35 184.94 12.0528 184.94 11.7001C184.94 11.3475 185.061 11.0553 185.303 10.8235C185.555 10.5817 185.867 10.4608 186.24 10.4608C186.613 10.4608 186.92 10.5817 187.162 10.8235C187.414 11.0553 187.54 11.3475 187.54 11.7001C187.54 12.0528 187.414 12.35 187.162 12.5919C186.92 12.8236 186.613 12.9395 186.24 12.9395ZM187.283 13.937V22.3101H185.167V13.937H187.283ZM60.9497 29.7001C62.7432 29.7001 64.1236 30.1687 65.0909 31.1057C66.0683 32.0428 66.557 33.3476 66.557 35.0202C66.557 36.6929 66.0683 37.9927 65.0909 38.9196C64.1236 39.8466 62.7432 40.3101 60.9497 40.3101H57.9723V29.7001H60.9497ZM60.9497 39.7358C62.5518 39.7358 63.771 39.3227 64.6073 38.4964C65.4436 37.6601 65.8617 36.5014 65.8617 35.0202C65.8617 33.529 65.4436 32.3652 64.6073 31.5289C63.771 30.6926 62.5518 30.2745 60.9497 30.2745H58.6524V39.7358H60.9497ZM76.0047 35.655C76.0047 36.0178 75.9946 36.2898 75.9745 36.4712H68.886C68.9062 37.2067 69.0674 37.8264 69.3697 38.3302C69.672 38.834 70.07 39.2118 70.5637 39.4637C71.0574 39.7156 71.5965 39.8416 72.1809 39.8416C72.987 39.8416 73.662 39.6451 74.2061 39.2521C74.7502 38.8491 75.0928 38.305 75.2339 37.6198H75.9442C75.783 38.4561 75.3699 39.1363 74.7049 39.6602C74.0399 40.1741 73.1985 40.431 72.1809 40.431C71.4151 40.431 70.7299 40.2597 70.1254 39.9172C69.5208 39.5746 69.0473 39.0859 68.7047 38.4511C68.3621 37.8062 68.1908 37.0556 68.1908 36.1991C68.1908 35.3427 68.3571 34.5971 68.6896 33.9623C69.0321 33.3275 69.5057 32.8438 70.1103 32.5113C70.7148 32.1688 71.405 31.9975 72.1809 31.9975C72.9668 31.9975 73.6469 32.1688 74.2213 32.5113C74.8057 32.8438 75.249 33.2922 75.5513 33.8565C75.8536 34.4107 76.0047 35.0102 76.0047 35.655ZM75.3246 35.912C75.3548 35.1865 75.2238 34.5719 74.9316 34.0681C74.6495 33.5643 74.2616 33.1915 73.7678 32.9496C73.2741 32.6977 72.7401 32.5718 72.1658 32.5718C71.5914 32.5718 71.0574 32.6977 70.5637 32.9496C70.08 33.1915 69.682 33.5643 69.3697 34.0681C69.0674 34.5719 68.9062 35.1865 68.886 35.912H75.3246ZM80.7958 40.431C79.8789 40.431 79.1282 40.2295 78.5438 39.8265C77.9695 39.4234 77.6471 38.8491 77.5765 38.1035H78.2718C78.3222 38.6375 78.564 39.0607 78.9973 39.3731C79.4406 39.6854 80.0401 39.8416 80.7958 39.8416C81.4205 39.8416 81.9142 39.6854 82.277 39.3731C82.6498 39.0506 82.8362 38.6577 82.8362 38.1942C82.8362 37.8717 82.7354 37.6098 82.5339 37.4082C82.3425 37.1967 82.1006 37.0354 81.8084 36.9246C81.5162 36.8138 81.1182 36.6929 80.6144 36.5619C80.0099 36.4007 79.5212 36.2445 79.1484 36.0933C78.7756 35.9321 78.4582 35.6953 78.1962 35.383C77.9342 35.0706 77.8033 34.6525 77.8033 34.1285C77.8033 33.7456 77.9191 33.393 78.1509 33.0705C78.3826 32.738 78.7051 32.4761 79.1182 32.2846C79.5313 32.0932 79.9998 31.9975 80.5238 31.9975C81.3802 31.9975 82.0704 32.2141 82.5944 32.6474C83.1284 33.0705 83.4156 33.66 83.4559 34.4157H82.7757C82.7455 33.8716 82.5339 33.4282 82.141 33.0857C81.748 32.7431 81.2039 32.5718 80.5086 32.5718C79.9242 32.5718 79.4406 32.7229 79.0577 33.0252C78.6748 33.3275 78.4834 33.6953 78.4834 34.1285C78.4834 34.5114 78.5892 34.8238 78.8008 35.0656C79.0224 35.2973 79.2895 35.4787 79.6018 35.6097C79.9242 35.7306 80.3474 35.8616 80.8714 36.0027C81.4457 36.1538 81.9042 36.3049 82.2467 36.4561C82.5994 36.5971 82.8966 36.8087 83.1385 37.0909C83.3803 37.3629 83.5012 37.7307 83.5012 38.1942C83.5012 38.6174 83.3853 39.0002 83.1536 39.3428C82.9218 39.6854 82.5994 39.9524 82.1863 40.1439C81.7732 40.3353 81.3097 40.431 80.7958 40.431ZM85.9205 30.2745C85.7593 30.2745 85.6233 30.2241 85.5124 30.1233C85.4016 30.0125 85.3462 29.8664 85.3462 29.685C85.3462 29.5137 85.4016 29.3727 85.5124 29.2618C85.6233 29.151 85.7593 29.0956 85.9205 29.0956C86.0817 29.0956 86.2177 29.151 86.3286 29.2618C86.4394 29.3727 86.4948 29.5137 86.4948 29.685C86.4948 29.8664 86.4394 30.0125 86.3286 30.1233C86.2177 30.2241 86.0817 30.2745 85.9205 30.2745ZM86.253 32.1033V40.3101H85.5729V32.1033H86.253ZM92.2829 31.9975C93.1494 31.9975 93.8849 32.2091 94.4895 32.6322C95.0941 33.0454 95.5172 33.5794 95.7591 34.2343V32.1033H96.4392V40.5671C96.4392 41.3228 96.2729 41.9827 95.9404 42.547C95.6079 43.1213 95.1596 43.5596 94.5953 43.8619C94.031 44.1742 93.4013 44.3304 92.7061 44.3304C91.6783 44.3304 90.8269 44.0836 90.1518 43.5898C89.4767 43.0961 89.0334 42.4311 88.8218 41.5948H89.5019C89.7034 42.2497 90.0813 42.7687 90.6354 43.1515C91.1896 43.5445 91.8798 43.741 92.7061 43.741C93.2804 43.741 93.7993 43.61 94.2628 43.348C94.7263 43.0961 95.089 42.7283 95.351 42.2447C95.623 41.7711 95.7591 41.2119 95.7591 40.5671V38.1639C95.5172 38.8189 95.089 39.363 94.4744 39.7962C93.8698 40.2194 93.1393 40.431 92.2829 40.431C91.5171 40.431 90.8319 40.2597 90.2274 39.9172C89.6329 39.5645 89.1644 39.0708 88.8218 38.436C88.4893 37.7911 88.323 37.0455 88.323 36.1991C88.323 35.3528 88.4893 34.6122 88.8218 33.9774C89.1644 33.3426 89.6329 32.8539 90.2274 32.5113C90.8319 32.1688 91.5171 31.9975 92.2829 31.9975ZM95.7591 36.1991C95.7591 35.4837 95.6079 34.854 95.3057 34.3099C95.0134 33.7557 94.6104 33.3325 94.0965 33.0403C93.5827 32.738 93.0083 32.5869 92.3736 32.5869C91.7085 32.5869 91.1241 32.733 90.6203 33.0252C90.1165 33.3073 89.7236 33.7204 89.4414 34.2645C89.1593 34.8087 89.0183 35.4535 89.0183 36.1991C89.0183 36.9448 89.1593 37.5896 89.4414 38.1337C89.7236 38.6778 90.1165 39.096 90.6203 39.3882C91.1342 39.6804 91.7186 39.8265 92.3736 39.8265C93.0083 39.8265 93.5827 39.6804 94.0965 39.3882C94.6205 39.0859 95.0286 38.6627 95.3208 38.1186C95.613 37.5644 95.7591 36.9246 95.7591 36.1991ZM102.619 31.937C103.596 31.937 104.392 32.2393 105.007 32.8438C105.621 33.4383 105.928 34.325 105.928 35.5039V40.3101H105.263V35.5492C105.263 34.5719 105.017 33.8262 104.523 33.3124C104.029 32.7884 103.359 32.5264 102.513 32.5264C101.626 32.5264 100.916 32.8086 100.382 33.3728C99.8577 33.9371 99.5958 34.7734 99.5958 35.8817V40.3101H98.9156V32.1033H99.5958V33.8414C99.8275 33.2267 100.21 32.7582 100.744 32.4358C101.289 32.1033 101.913 31.937 102.619 31.937ZM115.666 40.4159C114.981 40.4159 114.381 40.295 113.867 40.0532C113.354 39.8114 112.951 39.4839 112.658 39.0708C112.376 38.6577 112.215 38.1992 112.175 37.6954H112.885C112.966 38.2496 113.223 38.7433 113.656 39.1766C114.099 39.6098 114.769 39.8265 115.666 39.8265C116.19 39.8265 116.643 39.7308 117.026 39.5393C117.419 39.3479 117.721 39.0859 117.933 38.7534C118.145 38.4209 118.25 38.0531 118.25 37.6501C118.25 37.1362 118.125 36.7281 117.873 36.4258C117.631 36.1236 117.323 35.8969 116.951 35.7457C116.588 35.5946 116.094 35.4334 115.47 35.2621C114.784 35.0807 114.23 34.8993 113.807 34.718C113.394 34.5366 113.041 34.2595 112.749 33.8867C112.467 33.5038 112.326 32.9849 112.326 32.33C112.326 31.8262 112.457 31.3677 112.719 30.9546C112.991 30.5314 113.374 30.1989 113.867 29.9571C114.361 29.7153 114.93 29.5943 115.575 29.5943C116.512 29.5943 117.268 29.8261 117.842 30.2896C118.417 30.7531 118.759 31.3224 118.87 31.9975H118.145C118.084 31.7254 117.948 31.4483 117.737 31.1662C117.535 30.8841 117.243 30.6523 116.86 30.471C116.487 30.2795 116.039 30.1838 115.515 30.1838C114.81 30.1838 114.215 30.3803 113.731 30.7732C113.248 31.1561 113.006 31.67 113.006 32.3149C113.006 32.8287 113.132 33.2418 113.384 33.5542C113.636 33.8565 113.943 34.0882 114.306 34.2494C114.679 34.4006 115.177 34.5568 115.802 34.718C116.497 34.9094 117.046 35.0958 117.449 35.2772C117.863 35.4485 118.21 35.7256 118.492 36.1084C118.785 36.4813 118.931 36.9901 118.931 37.635C118.931 38.1085 118.805 38.5569 118.553 38.9801C118.301 39.4033 117.928 39.7509 117.434 40.023C116.951 40.2849 116.361 40.4159 115.666 40.4159ZM121.979 32.6927V38.1186C121.979 38.7232 122.09 39.1413 122.312 39.3731C122.533 39.5947 122.926 39.7056 123.491 39.7056H124.413V40.3101H123.385C122.669 40.3101 122.14 40.1439 121.798 39.8114C121.465 39.4688 121.299 38.9045 121.299 38.1186V32.6927H120.06V32.1033H121.299V30.0175H121.979V32.1033H124.413V32.6927H121.979ZM133.144 32.1033V40.3101H132.463V38.5267C132.232 39.1514 131.844 39.63 131.3 39.9625C130.766 40.2849 130.151 40.4461 129.456 40.4461C128.478 40.4461 127.677 40.1489 127.053 39.5544C126.438 38.9499 126.131 38.0581 126.131 36.8793V32.1033H126.796V36.8339C126.796 37.8113 127.043 38.5619 127.536 39.0859C128.03 39.5998 128.7 39.8567 129.546 39.8567C130.433 39.8567 131.138 39.5746 131.662 39.0103C132.196 38.4461 132.463 37.6098 132.463 36.5014V32.1033H133.144ZM135.2 36.1991C135.2 35.3528 135.366 34.6122 135.699 33.9774C136.041 33.3426 136.51 32.8539 137.104 32.5113C137.709 32.1688 138.394 31.9975 139.16 31.9975C139.996 31.9975 140.721 32.2091 141.336 32.6322C141.951 33.0454 142.384 33.5844 142.636 34.2494V29.1258H143.316V40.3101H142.636V38.1337C142.394 38.8088 141.971 39.363 141.366 39.7962C140.762 40.2194 140.026 40.431 139.16 40.431C138.394 40.431 137.709 40.2597 137.104 39.9172C136.51 39.5645 136.041 39.0708 135.699 38.436C135.366 37.7911 135.2 37.0455 135.2 36.1991ZM142.636 36.1991C142.636 35.4837 142.485 34.854 142.182 34.3099C141.89 33.7557 141.487 33.3325 140.973 33.0403C140.459 32.738 139.885 32.5869 139.25 32.5869C138.585 32.5869 138.001 32.733 137.497 33.0252C136.993 33.3073 136.6 33.7204 136.318 34.2645C136.036 34.8087 135.895 35.4535 135.895 36.1991C135.895 36.9448 136.036 37.5896 136.318 38.1337C136.6 38.6778 136.993 39.096 137.497 39.3882C138.011 39.6804 138.595 39.8265 139.25 39.8265C139.885 39.8265 140.459 39.6804 140.973 39.3882C141.497 39.0859 141.905 38.6627 142.198 38.1186C142.49 37.5644 142.636 36.9246 142.636 36.1991ZM146.14 30.2745C145.979 30.2745 145.843 30.2241 145.732 30.1233C145.621 30.0125 145.566 29.8664 145.566 29.685C145.566 29.5137 145.621 29.3727 145.732 29.2618C145.843 29.151 145.979 29.0956 146.14 29.0956C146.301 29.0956 146.437 29.151 146.548 29.2618C146.659 29.3727 146.714 29.5137 146.714 29.685C146.714 29.8664 146.659 30.0125 146.548 30.1233C146.437 30.2241 146.301 30.2745 146.14 30.2745ZM146.473 32.1033V40.3101H145.792V32.1033H146.473ZM152.578 40.431C151.812 40.431 151.122 40.2597 150.507 39.9172C149.893 39.5746 149.409 39.0859 149.056 38.4511C148.714 37.8062 148.543 37.0556 148.543 36.1991C148.543 35.3528 148.719 34.6122 149.072 33.9774C149.424 33.3325 149.908 32.8438 150.522 32.5113C151.147 32.1688 151.842 31.9975 152.608 31.9975C153.374 31.9975 154.064 32.1688 154.679 32.5113C155.293 32.8438 155.772 33.3275 156.115 33.9623C156.467 34.5971 156.644 35.3427 156.644 36.1991C156.644 37.0556 156.467 37.8062 156.115 38.4511C155.762 39.0859 155.273 39.5746 154.649 39.9172C154.034 40.2597 153.344 40.431 152.578 40.431ZM152.578 39.8265C153.172 39.8265 153.727 39.6955 154.241 39.4335C154.764 39.1615 155.183 38.7534 155.495 38.2093C155.807 37.6652 155.963 36.9951 155.963 36.1991C155.963 35.4132 155.807 34.7482 155.495 34.2041C155.183 33.66 154.769 33.257 154.256 32.995C153.742 32.7229 153.188 32.5869 152.593 32.5869C151.999 32.5869 151.444 32.7229 150.931 32.995C150.427 33.257 150.019 33.66 149.706 34.2041C149.394 34.7482 149.238 35.4132 149.238 36.1991C149.238 36.9951 149.389 37.6652 149.691 38.2093C150.004 38.7534 150.412 39.1615 150.915 39.4335C151.429 39.6955 151.983 39.8265 152.578 39.8265Z" fill="#454545"/>
</svg>
